<svg width="40" height="40" viewBox="0 0 40 40" version="1.1" xmlns="http://www.w3.org/2000/svg" xmlns:xlink="http://www.w3.org/1999/xlink">
<title>codepen</title>
<desc>Created using Figma</desc>
<g id="Canvas" transform="translate(-1200 -440)">
<g id="codepen">
<g id="Vector">
<use xlink:href="#path0_fill" transform="translate(1200 440)" fill="#EDEEF0"/>
</g>
</g>
</g>
<defs>
<path id="path0_fill" d="M 39.2409 12.4768L 20.9597 0.289308C 20.3357 -0.094676 19.6698 -0.0981917 19.0401 0.289308L 0.758905 12.4768C 0.290156 12.7892 0 13.3473 0 13.9053L 0 26.0927C 0 26.6507 0.290156 27.2088 0.758983 27.5213L 19.0402 39.7105C 19.6642 40.0945 20.3301 40.098 20.9598 39.7105L 39.241 27.5213C 39.7098 27.2089 40 26.6507 40 26.0927L 40 13.9053C 39.9999 13.3473 39.7098 12.7892 39.2409 12.4768ZM 21.7187 4.93203L 35.1785 13.9053L 29.1741 17.9232L 21.7187 12.9455L 21.7187 4.93203ZM 18.2812 4.93203L 18.2812 12.9455L 10.8258 17.9232L 4.8214 13.9053L 18.2812 4.93203ZM 3.43749 17.1196L 7.74553 19.999L 3.43749 22.8785L 3.43749 17.1196ZM 18.2812 35.066L 4.8214 26.0928L 10.8258 22.0749L 18.2812 27.0526L 18.2812 35.066ZM 20 24.0615L 13.9285 19.999L 20 15.9365L 26.0714 19.999L 20 24.0615ZM 21.7187 35.066L 21.7187 27.0526L 29.1741 22.0749L 35.1785 26.0928L 21.7187 35.066ZM 36.5624 22.8785L 32.2544 19.999L 36.5624 17.1196L 36.5624 22.8785Z"/>
</defs>
</svg>
