<svg width="40" height="40" viewBox="0 0 40 40" version="1.1" xmlns="http://www.w3.org/2000/svg" xmlns:xlink="http://www.w3.org/1999/xlink">
<title>github-square</title>
<desc>Created using Figma</desc>
<g id="Canvas" transform="translate(-1324 -440)">
<g id="github-square">
<g id="Vector">
<use xlink:href="#path0_fill" transform="translate(1324 440)" fill="#EDEEF0"/>
</g>
</g>
</g>
<defs>
<path id="path0_fill" d="M 35.7143 0L 4.28571 0C 1.91964 0 0 1.91964 0 4.28571L 0 35.7143C 0 38.0804 1.91964 40 4.28571 40L 35.7143 40C 38.0804 40 40 38.0804 40 35.7143L 40 4.28571C 40 1.91964 38.0804 0 35.7143 0ZM 24.7589 34.2589C 24.0089 34.3929 23.7321 33.9286 23.7321 33.5446C 23.7321 33.0625 23.75 30.5982 23.75 28.6071C 23.75 27.2143 23.2857 26.3304 22.7411 25.8661C 26.0446 25.5 29.5268 25.0446 29.5268 19.3393C 29.5268 17.7143 28.9464 16.9018 28 15.8571C 28.1518 15.4732 28.6607 13.8929 27.8482 11.8393C 26.6071 11.4554 23.7679 13.4375 23.7679 13.4375C 22.5893 13.1071 21.3125 12.9375 20.0536 12.9375C 18.7946 12.9375 17.5179 13.1071 16.3393 13.4375C 16.3393 13.4375 13.5 11.4554 12.2589 11.8393C 11.4464 13.8839 11.9464 15.4643 12.1071 15.8571C 11.1607 16.9018 10.7143 17.7143 10.7143 19.3393C 10.7143 25.0179 14.0446 25.5 17.3482 25.8661C 16.9196 26.25 16.5357 26.9107 16.4018 27.8571C 15.5536 28.2411 13.3839 28.9018 12.0893 26.6161C 11.2768 25.2054 9.8125 25.0893 9.8125 25.0893C 8.36607 25.0714 9.71429 26 9.71429 26C 10.6786 26.4464 11.3571 28.1607 11.3571 28.1607C 12.2232 30.8125 16.3661 29.9196 16.3661 29.9196C 16.3661 31.1607 16.3839 33.1786 16.3839 33.5446C 16.3839 33.9286 16.1161 34.3929 15.3571 34.2589C 9.46429 32.2857 5.33929 26.6786 5.33929 20.125C 5.33929 11.9286 11.6071 5.70536 19.8036 5.70536C 28 5.70536 34.6429 11.9286 34.6429 20.125C 34.6518 26.6786 30.6518 32.2946 24.7589 34.2589ZM 16 28.8036C 15.8304 28.8393 15.6696 28.7679 15.6518 28.6518C 15.6339 28.5179 15.75 28.4018 15.9196 28.3661C 16.0893 28.3482 16.25 28.4196 16.2679 28.5357C 16.2946 28.6518 16.1786 28.7679 16 28.8036ZM 15.1518 28.7232C 15.1518 28.8393 15.0179 28.9375 14.8393 28.9375C 14.6429 28.9554 14.5089 28.8571 14.5089 28.7232C 14.5089 28.6071 14.6429 28.5089 14.8214 28.5089C 14.9911 28.4911 15.1518 28.5893 15.1518 28.7232ZM 13.9286 28.625C 13.8929 28.7411 13.7143 28.7946 13.5625 28.7411C 13.3929 28.7054 13.2768 28.5714 13.3125 28.4554C 13.3482 28.3393 13.5268 28.2857 13.6786 28.3214C 13.8571 28.375 13.9732 28.5089 13.9286 28.625ZM 12.8304 28.1429C 12.75 28.2411 12.5804 28.2232 12.4464 28.0893C 12.3125 27.9732 12.2768 27.8036 12.3661 27.7232C 12.4464 27.625 12.6161 27.6429 12.75 27.7768C 12.8661 27.8929 12.9107 28.0714 12.8304 28.1429ZM 12.0179 27.3304C 11.9375 27.3839 11.7857 27.3304 11.6875 27.1964C 11.5893 27.0625 11.5893 26.9107 11.6875 26.8482C 11.7857 26.7679 11.9375 26.8304 12.0179 26.9643C 12.1161 27.0982 12.1161 27.2589 12.0179 27.3304ZM 11.4375 26.4643C 11.3571 26.5446 11.2232 26.5 11.125 26.4107C 11.0268 26.2946 11.0089 26.1607 11.0893 26.0982C 11.1696 26.0179 11.3036 26.0625 11.4018 26.1518C 11.5 26.2679 11.5179 26.4018 11.4375 26.4643ZM 10.8393 25.8036C 10.8036 25.8839 10.6875 25.9018 10.5893 25.8393C 10.4732 25.7857 10.4196 25.6875 10.4554 25.6071C 10.4911 25.5536 10.5893 25.5268 10.7054 25.5714C 10.8214 25.6339 10.875 25.7321 10.8393 25.8036Z"/>
</defs>
</svg>
