<svg width="40" height="40" viewBox="0 0 40 40" version="1.1" xmlns="http://www.w3.org/2000/svg" xmlns:xlink="http://www.w3.org/1999/xlink">
<title>Vector</title>
<desc>Created using Figma</desc>
<g id="Canvas" transform="translate(-1074 -440)">
<g id="Vector">
<use xlink:href="#path0_fill" transform="translate(1074 440)" fill="#EDEEF0"/>
</g>
</g>
<defs>
<path id="path0_fill" d="M 37.1429 0L 2.84821 0C 1.27679 0 0 1.29464 0 2.88393L 0 37.1161C 0 38.7054 1.27679 40 2.84821 40L 37.1429 40C 38.7143 40 40 38.7054 40 37.1161L 40 2.88393C 40 1.29464 38.7143 0 37.1429 0ZM 12.0893 34.2857L 6.16071 34.2857L 6.16071 15.1964L 12.0982 15.1964L 12.0982 34.2857L 12.0893 34.2857ZM 9.125 12.5893C 7.22321 12.5893 5.6875 11.0446 5.6875 9.15179C 5.6875 7.25893 7.22321 5.71429 9.125 5.71429C 11.0179 5.71429 12.5625 7.25893 12.5625 9.15179C 12.5625 11.0536 11.0268 12.5893 9.125 12.5893ZM 34.3125 34.2857L 28.3839 34.2857L 28.3839 25C 28.3839 22.7857 28.3393 19.9375 25.3036 19.9375C 22.2143 19.9375 21.7411 22.3482 21.7411 24.8393L 21.7411 34.2857L 15.8125 34.2857L 15.8125 15.1964L 21.5 15.1964L 21.5 17.8036L 21.5804 17.8036C 22.375 16.3036 24.3125 14.7232 27.1964 14.7232C 33.1964 14.7232 34.3125 18.6786 34.3125 23.8214L 34.3125 34.2857Z"/>
</defs>
</svg>
